**ABCDEFGHIJKLMNOPQRSTUVWXYZabcdefghijklmnopqrstuvwxyz**************************
**PARASOLID !"#$%&'()*+,-./:;<=>?@[\]^_`{|}~0123456789**************************
**PART1;
MC=unknown;
MC_MODEL=unknown;
MC_ID=unknown;
OS=unknown;
OS_RELEASE=unknown;
FRU=Parasolid 37.1.212;
APPL=Onshape;
SITE=unknown;
USER=unknown;
FORMAT=text;
GUISE=transmit;
KEY=BTGapi::writeModels_.xmt;
FILE=BTGapi::writeModels_.xmt;
DATE=2026-06-13T17:12:45 (UTC);
**PART2;
SCH=SCH_3701212_37102;
USFLD_SIZE=0;
**PART3;
**END_OF_HEADER*****************************************************************
T51 : TRANSMIT FILE created by modeller version 370121223 SCH_3701212_37102_1300
6239 0 12 36 CCCI7 lattice222 0 CCCI4 mesh1006 0 I8 polyline1008 0 CCCCCCCDI5 ow
ner1040 0 CCCI16 boundary_lattice222 0 CCCI13 boundary_mesh1006 0 I17 boundary_p
olyline1008 0 CCCA16 index_map_offset0 0 1 dA9 index_map82 0 A17 node_id_index_m
ap82 0 A20 schema_embedding_map82 0 A5 child12 0 A14 lowest_node_id0 0 1 dA16 me
sh_offset_data206 0 Z1 1483 2 3 0 0 0 0 0 0 0 1e3 1e-8 0 4 5 1 0 1 2 6 0 7 8 9 0
 0 10 11 12 0 0 0 0 0 0 0 81 255 1 2 1455 13 1 14 0 0 0 15 70 11 CI9 list_type0
 0 1 uI10 notransmit0 0 1 lCCCDCCDI12 finger_index0 0 1 dI12 finger_block1012 0
 CZ3 0 4 T1 0 0 6 20 1 16 16 13 255 6 137 0 1 0 17 0 0 18 0 50 255 7 1179 19 20
 21 0 0 +.00685521587729454 .1 -.1182806375288612 0 .3939192985791675 -.91914503
0018058 1 0 0 30 255 8 1158 0 11 22 0 0 +.154973217844963 .1 -.1182806375288612
 0 .919145030018058 .3939192985791675 29 255 9 1292 0 12 23 0 .1268233041310848
 -.0025 -.0925559738208162 19 9 CCCCCCI5 frame230 0 CA5 owner12 0 Z10 48 0 1 18
 0 24 0 V0 16 255 11 1156 25 ?27 0 30 8 0 0 1 18 255 12 1290 29 26 0 28 9 ?1 81
 1 29 1433 34 12 0 0 35 32 33 17 255 26 0 31 38 40 12 36 39 0 37 +18 28 1147 41
 45 12 43 23 ?1 81 1 41 1191 34 28 0 0 42 44 46 17 45 0 50 48 47 28 49 30 0 51 +
18 43 1138 44 55 28 52 53 ?1 29 23 1150 0 28 53 9 .154973217844963 .03 -.1482806
375288612 29 53 1141 0 43 54 23 -.145026782155037 .03 -.1482806375288612 29 54 1
132 0 52 57 53 -.145026782155037 .1 -.1182806375288612 18 52 1129 60 59 43 56 54
 ?1 29 57 1128 0 56 58 54 .154973217844963 .1 -.1182806375288612 18 56 1125 61 2
7 52 62 57 ?1 29 58 932 0 62 64 57 .154973217844963 0 -.1482806375288612 18 62 9
30 63 48 56 65 58 ?1 29 64 668 0 65 66 58 -.145026782155037 0 .0867193624711389
 18 65 666 70 68 62 67 64 ?1 29 66 659 0 67 69 64 .154973217844963 0 .0867193624
711389 18 67 657 75 71 65 73 66 ?1 29 69 537 0 73 72 66 .1295210048556328 -.2175
 -.105293639469108 18 73 534 74 76 67 80 69 ?1 29 72 533 0 80 77 69 .12952100485
56328 -.22 -.105293639469108 18 80 530 78 79 73 81 72 ?1 29 77 524 0 81 85 72 .1
54521004855633 -.2175 -.0802936394691081 18 81 521 83 82 80 84 77 ?1 29 85 520 0
 84 89 77 .154521004855633 -.22 -.0802936394691081 18 84 517 90 87 81 88 85 ?1 2
9 89 203 0 88 86 85 .154521004855633 -.22 .0947063605308919 18 88 201 93 95 84 9
1 89 ?1 29 86 113 0 94 92 89 .2068552158772945 0 .1511770269231695 18 94 92 96 1
00 98 97 86 ?1 29 92 114 0 97 99 86 .2068552158772945 0 -.1488229730768304 18 97
 96 101 105 94 103 92 ?1 29 99 115 0 103 102 92 -.1931447841227055 0 -.148822973
0768302 18 103 100 104 106 97 110 99 ?1 29 102 116 0 110 107 99 -.19314478412270
55 0 .1511770269231695 18 110 104 108 109 103 112 102 ?1 29 107 44 0 91 115 102
 .2068552158772945 -.22 .1511770269231695 18 91 42 114 111 88 113 107 ?1 29 115
 39 0 113 116 107 .2068552158772945 -.22 -.1488229730768304 18 113 37 117 119 91
 118 115 ?1 29 116 34 0 118 120 115 -.1931447841227055 -.22 -.1488229730768302 1
8 118 32 121 125 113 98 116 ?1 29 120 29 0 98 123 116 -.1931447841227055 -.22 .1
511770269231695 18 98 27 122 124 118 94 120 ?1 29 123 332 0 130 126 120 -.145478
9951443672 -.22 .0947063605308919 18 130 286 128 127 112 129 123 ?1 29 126 335 0
 129 131 123 -.1454789951443672 -.22 -.105293639469108 18 129 274 135 132 130 13
3 126 ?1 29 131 337 0 112 134 126 .154521004855633 -.2175 .0947063605308919 18 1
12 284 136 140 110 130 131 ?1 29 134 461 0 133 138 131 -.1454789951443672 -.2175
 -.105293639469108 18 133 402 137 139 129 144 134 ?1 29 138 464 0 144 145 134 -.
1454789951443672 -.2175 .0947063605308919 18 144 401 142 143 133 141 138 ?1 29 1
45 465 0 148 150 138 .2043552158772945 -.0025 -.1463229730768302 18 148 415 146
 149 147 151 145 ?1 29 150 466 0 151 155 145 -.1906447841227055 -.0025 -.1463229
730768302 18 151 409 153 152 148 154 150 ?1 29 155 467 0 141 156 150 .2043552158
772945 -.2175 .1486770269231696 18 141 413 160 158 144 157 155 ?1 29 156 468 0 1
47 159 155 .2043552158772945 -.0025 .1486770269231696 18 147 407 161 165 162 148
 156 ?1 29 159 469 0 154 163 156 -.1906447841227055 -.0025 .1486770269231696 18
 154 411 164 167 151 170 159 ?1 29 163 470 0 162 169 159 -.1906447841227055 -.21
75 .1486770269231696 18 162 405 166 168 171 147 163 ?1 29 169 471 0 157 172 163
 .2043552158772945 -.2175 -.1463229730768302 18 157 399 174 173 141 171 169 ?1 2
9 172 472 0 171 175 169 -.1906447841227055 -.2175 -.1463229730768302 18 171 397
 176 180 157 162 172 ?1 29 175 792 0 170 178 172 -.145026782155037 .1 .086719362
4711389 18 170 736 177 179 154 185 175 ?1 29 178 795 0 185 181 175 .154973217844
963 .1 .0867193624711389 18 185 728 183 182 170 184 178 ?1 29 181 1076 0 184 186
 178 -.145026782155037 0 -.1482806375288612 18 184 1021 190 187 185 188 181 ?1 2
9 186 1417 0 189 191 181 .1268233041310848 -.0025 .0774440261791838 18 189 1371
 195 193 192 194 186 ?1 29 191 1419 0 194 199 186 -.1431766958689152 -.0025 -.09
25559738208163 18 194 1363 200 40 189 197 191 ?1 29 199 1420 0 197 198 191 -.143
1766958689152 -.0025 .0774440261791838 18 197 1359 196 203 194 0 199 ?1 29 198 1
421 0 188 205 199 .1268233041310848 .0185 .0774440261791838 18 188 1357 201 204
 184 202 198 ?1 29 205 1422 0 202 206 198 .1268233041310848 .0185 -.092555973820
8162 18 202 1369 32 38 188 210 205 ?1 29 206 1423 0 210 208 205 -.14317669586891
52 .0185 -.0925559738208163 18 210 1365 35 207 202 192 206 ?1 29 208 1424 0 192
 0 206 -.1431766958689152 .0185 .0774440261791838 18 192 1361 209 211 210 189 20
8 ?1 81 1 209 1428 34 192 0 0 196 195 215 17 211 0 213 212 214 192 203 216 0 220
 -15 255 213 1376 0 214 217 0 17 212 0 213 193 211 188 218 219 0 0 +17 214 0 213
 211 193 197 222 225 0 224 -17 203 0 221 223 220 197 211 216 0 214 +16 216 1318
 226 ?203 227 229 228 0 0 1 17 220 0 221 203 207 192 230 231 0 218 -15 221 1380
 0 223 235 0 17 207 0 221 220 223 210 40 229 0 230 -17 230 0 233 232 218 210 220
 231 0 234 +16 231 1321 240 ?230 236 219 238 0 0 1 17 218 0 233 230 237 192 212
 219 0 0 -15 233 1392 0 218 239 0 17 237 0 233 218 232 188 241 245 0 212 -16 219
 1341 242 ?212 231 243 244 0 0 1 81 1 242 1443 34 219 0 0 246 250 248 16 243 133
3 247 ?249 219 39 254 0 0 1 30 244 1416 0 219 0 238 0 +-.00817669586891523 .0185
 .0774440261791838 1 0 0 30 238 1415 0 231 244 255 0 +-.1431766958689152 .0185 -
.00755597382081624 0 0 -1 30 255 1414 0 236 238 252 0 +-.00817669586891523 .0185
 -.0925559738208163 1 0 0 16 236 1327 250 ?232 245 231 255 0 0 1 30 252 1413 0 2
45 255 253 0 +.1268233041310848 .0185 -.00755597382081624 0 0 -1 16 245 1344 251
 ?241 258 236 252 0 0 1 30 253 1412 0 225 252 260 0 +-.00817669586891523 -.0025
 .0774440261791838 1 0 0 16 225 1313 256 ?222 259 0 253 0 0 1 30 260 1411 0 259
 253 257 0 +-.1431766958689152 -.0025 -.00755597382081624 0 0 -1 16 259 1347 261
 ?223 39 225 260 0 0 1 30 257 1410 0 39 260 254 0 +-.00817669586891523 -.0025 -.
0925559738208163 1 0 0 16 39 1352 265 ?26 243 259 257 0 0 1 30 254 1409 0 243 25
7 263 0 +.1268233041310848 -.0025 -.00755597382081624 0 0 -1 30 263 1408 0 258 2
54 262 0 +.1268233041310848 .0185 .0774440261791838 0 -1 0 16 258 1338 264 ?193
 266 245 263 0 0 1 30 262 1407 0 266 263 270 0 +.1268233041310848 .0185 -.092555
9738208162 0 -1 0 16 266 1330 246 ?37 229 258 262 0 0 1 30 270 1406 0 229 262 22
8 0 +-.1431766958689152 .0185 -.0925559738208163 0 -1 0 16 229 1324 268 ?40 216
 266 270 0 0 1 30 228 1405 0 216 270 267 0 +-.1431766958689152 .0185 .0774440261
791838 0 -1 0 30 267 1068 0 227 228 269 0 +.00497321784496307 0 -.14828063752886
12 -1 0 0 16 227 991 271 ?275 272 216 267 0 0 1 30 269 1067 0 272 267 273 0 +-.1
45026782155037 .1 -.1482806375288612 0 -1 0 16 272 1139 274 ?187 277 227 269 0 0
 1 30 273 1065 0 277 269 280 0 +.154973217844963 .1 -.1482806375288612 0 -1 0 16
 277 1148 279 ?48 276 272 273 0 0 1 30 280 787 0 278 273 281 0 +.004973217844963
07 .1 .0867193624711389 -1 0 0 16 278 684 282 ?284 283 285 280 0 0 1 30 281 786
 0 283 280 286 0 +.154973217844963 .1 -.01328063752886114 0 0 -1 16 283 712 290
 ?288 287 278 281 0 0 1 30 286 784 0 287 281 289 0 +-.145026782155037 .1 -.01328
063752886114 0 0 -1 16 287 706 295 ?291 293 283 286 0 0 1 30 289 783 0 276 286 2
92 0 +.00497321784496307 0 .0867193624711389 -1 0 0 16 276 718 294 ?68 296 277 2
89 0 0 1 30 292 782 0 296 289 300 0 +.154973217844963 0 -.01328063752886114 0 0
 -1 16 296 690 297 ?298 285 276 292 0 0 1 30 300 780 0 285 292 299 0 +-.14502678
2155037 0 -.01328063752886114 0 0 -1 16 285 723 301 ?305 278 296 300 0 0 1 30 29
9 779 0 293 300 303 0 +-.145026782155037 .1 .0867193624711389 0 -1 0 16 293 687
 302 ?304 309 287 299 0 0 1 30 303 776 0 309 299 310 0 +.154973217844963 .1 .086
7193624711389 0 -1 0 16 309 695 307 ?308 306 293 303 0 0 1 30 310 460 0 313 303
 315 0 +.00685521587729454 -.2175 .1486770269231696 1 0 0 16 313 377 311 ?314 31
2 316 310 0 0 1 30 315 459 0 312 310 320 0 +-.1906447841227055 -.2175 .001177026
923169676 0 0 -1 16 312 369 318 ?180 317 313 315 0 0 1 30 320 458 0 317 315 319
 0 +.00685521587729454 -.2175 -.1463229730768302 1 0 0 16 317 371 321 ?173 325 3
12 320 0 0 1 30 319 457 0 325 320 323 0 +.2043552158772945 -.2175 .0011770269231
69676 0 0 -1 16 325 389 322 ?324 326 317 319 0 0 1 30 323 456 0 306 319 330 0 +.
00685521587729454 -.0025 .1486770269231696 1 0 0 16 306 393 327 ?328 329 309 323
 0 0 1 30 330 455 0 332 323 335 0 +-.1906447841227055 -.22 .1486770269231696 0 1
 0 16 332 383 334 ?167 331 333 330 0 0 1 30 335 454 0 326 330 336 0 +.2043552158
772945 -.22 .1486770269231696 0 1 0 16 326 379 337 ?165 339 325 335 0 0 1 30 336
 453 0 329 335 338 0 +-.1906447841227055 -.0025 .001177026923169676 0 0 -1 16 32
9 381 340 ?152 341 306 336 0 0 1 30 338 452 0 333 336 345 0 +-.1906447841227055
 -.22 -.1463229730768302 0 1 0 16 333 387 343 ?342 332 339 338 0 0 1 30 345 451
 0 341 338 344 0 +.00685521587729454 -.0025 -.1463229730768302 1 0 0 16 341 385
 350 ?346 316 329 345 0 0 1 30 344 450 0 339 345 348 0 +.2043552158772945 -.22 -
.1463229730768302 0 1 0 16 339 391 347 ?149 333 326 344 0 0 1 30 348 449 0 316 3
44 349 0 +.2043552158772945 -.0025 .001177026923169676 0 0 -1 16 316 395 351 ?35
5 313 341 348 0 0 1 30 349 331 0 352 348 353 0 +-.1454789951443672 -.2175 -.0052
9363946910812 0 0 1 16 352 256 354 ?356 360 358 349 0 0 1 30 353 330 0 360 349 3
57 0 +.00452100485563275 -.2175 -.105293639469108 1 0 0 16 360 236 359 ?364 365
 352 353 0 0 1 30 357 329 0 365 353 362 0 +.154521004855633 -.2175 -.00529363946
910812 0 0 1 16 365 522 363 ?140 361 360 357 0 0 1 30 362 328 0 361 357 368 0 +.
0045210048556327 -.2175 .0947063605308919 1 0 0 16 361 259 370 ?366 369 365 362
 0 0 1 30 368 327 0 331 362 367 0 +-.1454789951443672 -.22 -.00529363946910812 0
 0 1 16 331 228 371 ?375 373 332 368 0 0 1 30 367 326 0 373 368 372 0 +.00452100
485563275 -.22 -.105293639469108 1 0 0 16 373 262 374 ?376 380 331 367 0 0 1 30
 372 325 0 380 367 378 0 +.154521004855633 -.22 -.00529363946910812 0 0 1 16 380
 518 377 ?95 358 373 372 0 0 1 30 378 324 0 358 372 379 0 +.0045210048556327 -.2
2 .0947063605308919 1 0 0 16 358 248 381 ?385 352 380 378 0 0 1 30 379 323 0 369
 378 382 0 +-.1454789951443672 -.2175 .0947063605308919 0 -1 0 16 369 253 383 ?1
27 384 361 379 0 0 1 30 382 322 0 384 379 387 0 +.154521004855633 -.2175 .094706
3605308919 0 -1 0 16 384 245 390 ?389 386 369 382 0 0 1 30 387 320 0 386 382 388
 0 +-.1454789951443672 -.2175 -.105293639469108 0 -1 0 16 386 233 391 ?132 392 3
84 387 0 0 1 30 388 9 0 394 387 393 0 +.00685521587729454 -.22 .1511770269231695
 1 0 0 16 394 7 395 ?396 400 398 388 0 0 1 30 393 14 0 400 388 397 0 +-.19314478
41227055 -.22 .001177026923169676 0 0 -1 16 400 12 399 ?125 405 394 393 0 0 1 30
 397 19 0 405 393 401 0 +.00685521587729454 -.22 -.1488229730768302 1 0 0 16 405
 17 403 ?119 402 400 397 0 0 1 30 401 24 0 402 397 404 0 +.2068552158772945 -.22
 .001177026923169676 0 0 -1 16 402 22 406 ?410 407 405 401 0 0 1 30 404 112 0 39
2 401 408 0 +.00685521587729454 0 .1511770269231695 1 0 0 16 392 88 409 ?411 415
 386 404 0 0 1 30 408 111 0 415 404 413 0 +-.1931447841227055 0 .001177026923169
676 0 0 -1 16 415 84 412 ?106 414 392 408 0 0 1 30 413 110 0 414 408 419 0 +.006
85521587729454 0 -.1488229730768302 1 0 0 16 414 80 420 ?417 398 415 413 0 0 1 3
0 419 109 0 398 413 418 0 +.2068552158772945 0 .001177026923169676 0 0 -1 16 398
 76 416 ?423 394 414 419 0 0 1 30 418 133 0 407 419 425 0 +.2068552158772945 -.2
2 .1511770269231695 0 1 0 16 407 117 421 ?100 424 402 418 0 0 1 30 425 134 0 424
 418 422 0 +.2068552158772945 -.22 -.1488229730768304 0 1 0 16 424 118 426 ?105
 430 407 425 0 0 1 30 422 135 0 430 425 428 0 +-.1931447841227055 -.22 -.1488229
730768302 0 1 0 16 430 119 427 ?429 431 424 422 0 0 1 30 428 136 0 431 422 435 0
 +-.1931447841227055 -.22 .1511770269231695 0 1 0 16 431 120 433 ?109 432 430 42
8 0 0 1 30 435 527 0 432 428 434 0 +.154521004855633 -.22 -.0802936394691081 0 -
1 0 16 432 525 436 ?440 437 431 435 0 0 1 30 434 540 0 437 435 438 0 +.129521004
8556328 -.2175 -.105293639469108 0 1 0 16 437 538 439 ?76 442 432 434 0 0 1 30 4
38 551 0 442 434 445 0 -.154521004855633 -.22 -.0802936394691081 .70710678118654
8 0 .707106781186548 16 442 543 444 ?79 441 437 438 0 0 1 30 445 552 0 441 438 4
43 0 -.1214234435626026 -.2175 -.1133912007621382 -.707106781186548 0 -.70710678
1186548 16 441 547 446 ?82 447 442 445 0 0 1 30 443 1135 0 447 445 449 0 +-.1450
26782155037 .1 -.1182806375288612 -1 0 0 16 447 1133 448 ?450 451 441 443 0 0 1
 30 449 1144 0 451 443 22 0 +-.145026782155037 .1380172413793104 -.1019875340805
852 0 -.919145030018058 -.3939192985791675 16 451 1142 455 ?55 30 447 449 0 0 1
 30 22 1153 0 30 449 8 0 +.154973217844963 .03 -.1482806375288612 1 0 0 16 30 11
51 453 ?45 11 451 22 0 0 1 81 1 453 1195 34 30 0 0 60 448 452 80 7 CCCCCDI12 leg
al_owners0 17 1 lCZ1 34 454 460 9000 0 0 0 0 3 6 0 0 0 FFTFTFTTFFFFFFFFF1 81 1 6
0 1194 34 52 0 0 61 453 456 81 1 448 1196 34 447 0 0 453 25 458 82 255 3 452 19
 0 1 81 1 25 1197 34 11 0 0 448 455 457 82 3 458 19 1 1 81 1 455 1198 34 451 0 0
 25 279 459 82 3 457 19 2 1 81 1 279 1199 34 277 0 0 455 274 461 82 3 459 19 3 1
 81 1 274 1200 34 272 0 0 279 290 465 82 3 461 19 4 1 81 1 290 1201 34 283 0 0 2
74 295 462 82 3 465 19 5 1 81 1 295 1202 34 287 0 0 290 463 464 82 3 462 19 6 1
 81 1 463 1203 34 20 0 466 295 470 468 82 3 464 19 7 1 14 255 20 1167 466 ?217 4
67 469 6 7 +0 0 217 467 24 81 1 466 1478 474 20 463 0 475 472 473 81 1 470 1204
 34 467 0 475 463 471 478 82 3 468 19 0 2 14 467 1041 475 ?20 480 50 6 476 -0 0
 20 480 24 81 1 475 1477 474 467 470 0 479 466 477 81 1 471 1205 34 480 0 479 47
0 481 485 82 3 478 19 1 2 14 480 760 479 ?467 483 482 6 484 +0 0 467 483 24 81 1
 479 1476 474 480 471 0 486 475 490 81 1 481 1206 34 488 0 487 471 489 491 82 3
 485 19 2 2 14 488 748 487 ?483 495 492 6 493 -0 0 483 495 24 81 1 487 1474 474
 488 481 0 494 486 497 81 1 489 1207 34 483 0 486 481 196 500 82 3 491 19 3 2 14
 483 756 486 ?480 488 499 6 496 +0 0 480 488 24 81 1 486 1475 474 483 489 0 487
 479 498 81 1 196 1427 34 197 0 0 489 209 501 82 3 500 19 4 2 82 3 501 23 0 0 80
 1 474 0 502 8001 0 0 0 0 3 5 0 0 0 FFFFTFTFFFFFFFFFF2 83 255 3 498 .61568627450
9804 .811764705882353 .929411764705882 79 255 15 502 SDL/TYSA_COLOUR15 499 759 0
 291 483 0 50 496 773 0 483 484 493 0 +-.145026782155037 .1 -.01328063752886114
 -1 0 0 0 0 1 13 24 49 0 0 0 0 0 0 10 17 14 17 438 504 ?503 0 505 6 506 +0 0 503
 0 24 81 1 504 1456 474 17 510 0 0 508 507 14 503 68 508 ?509 17 515 6 511 -0 0
 509 17 24 15 505 440 0 513 17 512 50 506 443 0 17 514 516 0 +.00685521587729454
 -.0025 .001177026923169676 0 -1 0 1 0 0 50 514 444 0 520 517 506 0 +.2043552158
772945 -.22 .001177026923169676 1 0 0 0 0 -1 50 516 317 0 518 506 519 0 +.004521
0048556327 -.2175 .0947063605308919 0 0 -1 -1 0 0 14 518 300 521 ?525 523 522 6
 516 +0 0 525 523 24 50 519 316 0 523 516 524 0 +.154521004855633 -.2175 -.00529
363946910812 1 0 0 0 0 -1 14 523 296 529 ?518 530 527 6 519 -0 0 518 530 24 50 5
24 315 0 530 519 528 0 +.00452100485563275 -.2175 -.105293639469108 0 0 -1 -1 0
 0 14 530 292 526 ?523 533 535 6 524 -0 0 523 533 24 50 528 314 0 533 524 531 0
 +-.1454789951443672 -.2175 -.00529363946910812 1 0 0 0 0 -1 14 533 288 534 ?530
 532 536 6 528 +0 0 530 532 24 50 531 3 0 509 528 511 0 +.00685521587729454 -.22
 .001177026923169676 0 -1 0 1 0 0 14 509 1 540 ?538 503 537 6 531 +0 0 538 503 2
4 50 511 108 0 503 531 539 0 +.00685521587729454 0 .001177026923169676 0 -1 0 1
 0 0 50 539 129 0 532 511 541 0 +.2068552158772945 -.22 .001177026923169676 1 0
 0 0 0 -1 14 532 122 545 ?533 543 542 6 539 +0 0 533 543 24 50 541 130 0 543 539
 544 0 +.00685521587729454 -.22 -.1488229730768302 0 0 1 1 0 0 14 543 124 546 ?5
32 550 547 6 541 -0 0 532 550 24 50 544 131 0 550 541 548 0 +-.1931447841227055
 -.22 .001177026923169676 1 0 0 0 0 -1 14 550 126 549 ?543 538 552 6 544 -0 0 54
3 538 24 50 548 132 0 538 544 21 0 +.00685521587729454 -.22 .1511770269231695 0
 0 1 1 0 0 14 538 128 555 ?550 509 554 6 548 +0 0 550 509 24 50 21 571 551 553 5
48 7 0 -.154521004855633 -.2175 -.0802936394691081 -.707106781186548 0 .70710678
1186548 0 1 0 81 2 551 572 556 21 0 0 0 19 557 559 14 553 559 558 ?495 520 560 6
 21 -0 0 495 520 24 81 1 558 1472 474 553 561 0 565 494 563 14 495 744 494 ?488
 553 562 6 564 +0 0 488 553 24 14 520 435 565 ?553 570 566 6 514 -0 0 553 570 24
 15 560 560 0 568 553 0 17 568 0 560 567 569 73 82 441 0 0 -17 567 0 560 87 568
 80 76 437 0 0 -17 569 0 560 568 87 81 440 432 0 0 -17 82 0 571 140 364 81 568 4
41 0 575 +15 571 421 0 364 525 0 17 140 0 571 143 82 112 575 365 0 572 +17 364 0
 571 82 139 73 573 360 0 568 +17 575 0 527 440 572 81 140 365 0 569 -15 527 299
 0 575 523 0 17 440 0 527 95 575 84 569 432 0 574 +17 572 0 527 575 95 112 389 3
84 0 366 -17 95 0 527 572 440 88 574 380 0 389 +17 389 0 522 576 366 88 572 384
 0 385 +17 366 0 522 389 580 112 143 361 0 0 +15 522 303 0 576 518 0 17 580 0 52
2 366 576 144 127 369 0 356 -17 143 0 571 139 140 144 366 361 0 580 -17 139 0 57
1 364 143 133 356 352 0 578 -17 356 0 536 127 578 144 139 352 0 0 +17 578 0 536
 356 577 133 132 386 0 573 -15 536 291 0 577 533 0 17 577 0 536 578 127 129 375
 331 0 579 -17 132 0 535 376 573 129 578 386 0 577 +17 573 0 535 132 76 133 364
 360 0 0 -15 535 295 0 376 530 0 17 76 0 535 573 376 73 567 437 0 364 +17 376 0
 535 76 132 80 579 373 0 567 +17 579 0 584 375 79 129 376 373 0 0 -15 584 199 0
 579 509 0 17 375 0 584 385 579 130 577 331 0 0 +17 79 0 584 579 574 80 87 442 0
 376 +17 574 0 584 79 385 84 95 380 0 0 -17 87 0 560 569 567 84 79 442 0 440 -17
 385 0 584 574 375 88 576 358 0 0 +17 576 0 522 580 389 130 385 358 0 375 -17 12
7 0 536 577 356 130 580 369 0 576 +14 525 422 585 ?582 518 583 6 581 -0 0 582 51
8 24 81 1 585 1467 474 525 588 0 521 590 586 14 582 426 590 ?589 525 587 6 591 -
0 0 589 525 24 15 583 420 0 314 525 571 50 581 448 0 525 564 591 0 +.00685521587
729454 -.2175 .001177026923169676 0 -1 0 1 0 0 50 564 770 0 495 493 581 0 +.0049
7321784496307 .1 .0867193624711389 0 0 1 1 0 0 50 591 447 0 582 581 595 0 +.0068
5521587729454 -.22 .1486770269231696 0 0 1 1 0 0 50 595 446 0 589 591 517 0 +-.1
906447841227055 -.22 .001177026923169676 1 0 0 0 0 -1 14 589 429 593 ?570 582 59
2 6 595 +0 0 570 582 24 50 517 445 0 570 595 514 0 +.00685521587729454 -.22 -.14
63229730768302 0 0 1 1 0 0 14 570 432 594 ?520 589 596 6 517 +0 0 520 589 24 81
 1 594 1470 474 570 600 0 593 565 598 15 596 434 0 597 570 0 17 597 0 596 599 14
9 151 346 341 0 0 -17 599 0 596 173 597 171 342 333 0 601 -17 149 0 596 597 173
 148 605 339 0 346 +17 346 0 505 602 152 148 597 341 0 355 +17 602 0 505 513 346
 147 355 316 0 0 -17 152 0 505 346 513 151 603 329 0 342 +17 355 0 566 605 165 1
48 602 316 0 0 +15 566 437 0 355 520 0 17 605 0 566 604 355 157 149 339 0 324 -1
7 165 0 566 355 604 147 158 326 0 328 +17 604 0 566 165 605 141 324 325 0 0 -17
 158 0 587 607 328 141 165 326 0 314 -17 328 0 587 158 167 147 513 306 0 602 +15
 587 428 0 328 582 0 17 167 0 587 328 607 154 168 332 0 603 +17 513 0 505 152 60
2 154 328 306 0 0 -17 607 0 587 167 158 162 314 313 0 0 -17 168 0 592 180 603 16
2 167 332 0 610 -17 603 0 592 168 342 154 152 329 0 513 -15 592 431 0 603 589 0
 17 342 0 592 603 180 151 599 333 0 597 +17 180 0 592 342 168 171 610 312 0 599
 +17 610 0 583 314 601 162 180 312 0 607 -17 314 0 583 324 610 141 607 313 0 604
 +17 601 0 583 610 324 171 173 317 0 0 -17 324 0 583 601 314 157 604 325 0 0 +17
 173 0 596 149 599 157 601 317 0 605 +81 1 600 507 34 570 0 594 609 606 608 81 1
 593 1469 474 589 606 0 590 594 611 81 1 565 1471 474 520 612 0 594 558 614 83 3
 598 .615686274509804 .811764705882353 .929411764705882 81 1 612 509 34 520 0 56
5 606 78 613 83 3 614 .615686274509804 .811764705882353 .929411764705882 81 1 60
6 508 34 589 0 593 600 612 615 81 1 78 583 34 80 0 0 612 74 616 82 3 613 11 4 2
 81 1 74 584 34 73 0 0 78 90 620 82 3 616 12 0 0 81 1 90 585 34 84 0 0 74 83 618
 82 3 620 12 1 0 81 1 83 586 34 81 0 0 90 439 617 82 3 618 12 2 0 81 1 439 587 3
4 437 0 0 83 436 619 82 3 617 12 3 0 81 1 436 588 34 432 0 0 439 444 625 82 3 61
9 12 0 1 81 1 444 589 34 442 0 0 436 446 621 82 3 625 12 1 1 81 1 446 590 34 441
 0 0 444 374 623 82 3 621 12 2 1 81 1 374 591 34 373 0 0 446 377 622 82 3 623 12
 3 1 81 1 377 592 34 380 0 0 374 359 624 82 3 622 12 4 1 81 1 359 593 34 360 0 0
 377 363 626 82 3 624 12 5 1 81 1 363 594 34 365 0 0 359 561 630 82 3 626 12 6 1
 81 1 561 595 34 553 0 558 363 627 628 82 3 630 12 7 1 81 1 627 596 34 530 0 526
 561 629 631 82 3 628 12 0 2 81 1 526 1464 474 530 627 0 534 529 635 81 1 629 59
7 34 523 0 529 627 633 632 82 3 631 12 1 2 81 1 529 1465 474 523 629 0 526 521 6
34 81 1 633 598 34 509 0 540 629 588 639 82 3 632 12 2 2 81 1 540 1458 474 509 6
33 0 508 555 640 81 1 588 599 34 525 0 585 633 282 637 82 3 639 12 3 2 81 1 282
 686 34 278 0 0 588 302 638 82 3 637 12 4 2 81 1 302 689 34 293 0 0 282 307 636
 82 3 638 15 5 1 81 1 307 697 34 309 0 0 302 183 643 82 3 636 15 1 1 81 1 183 72
9 34 185 0 0 307 177 645 82 3 643 15 0 1 81 1 177 737 34 170 0 0 183 641 644 82
 3 645 15 1 0 81 1 641 746 34 495 0 494 177 75 642 82 3 644 15 3 0 81 1 494 1473
 474 495 641 0 558 487 646 81 1 75 801 34 67 0 0 641 70 650 82 3 642 15 0 2 81 1
 70 802 34 65 0 0 75 294 648 82 3 650 16 0 0 81 1 294 805 34 276 0 0 70 647 649
 82 3 648 16 1 0 81 1 647 1107 34 1 0 651 294 63 655 82 3 649 16 0 1 81 1 651 14
53 653 1 647 14 0 0 652 81 1 63 1108 34 62 0 0 647 190 654 82 3 655 6 0 3 81 1 1
90 1109 34 184 0 0 63 297 656 82 3 654 18 0 0 81 1 297 1110 34 296 0 0 190 301 6
60 82 3 656 18 1 0 81 1 301 1111 34 285 0 0 297 271 657 82 3 660 18 0 1 81 1 271
 1112 34 227 0 0 301 42 658 82 3 657 18 1 1 81 1 42 1118 34 503 0 508 271 41 659
 82 3 658 18 2 1 81 1 508 1457 474 503 42 0 504 540 662 82 3 659 18 3 2 83 3 662
 .615686274509804 .811764705882353 .929411764705882 80 1 653 665 664 8038 0 0 0
 0 0 0 0 0 0 TTTTTTTTTTTTTFTFT10 81 1 14 1454 665 1 651 2 0 0 661 98 255 6 652 8
0 97 114 116 32 49 80 1 665 663 666 8017 0 0 0 0 0 0 0 0 0 TTTTTTTTTTTTTFTFT3 84
 255 6 661 Part 179 13 666 SDL/TYSA_NAME79 14 664 SDL/TYSA_UNAME83 3 646 .615686
274509804 .811764705882353 .929411764705882 81 1 555 1459 474 538 667 0 540 549
 669 83 3 640 .615686274509804 .811764705882353 .929411764705882 81 1 667 172 34
 538 0 555 406 668 670 81 1 549 1460 474 550 671 0 555 546 675 83 3 669 .6156862
74509804 .811764705882353 .929411764705882 81 1 671 176 34 550 0 549 668 673 672
 81 1 546 1461 474 543 668 0 549 545 674 83 3 675 .615686274509804 .811764705882
353 .929411764705882 81 1 668 175 34 543 0 546 667 671 680 81 1 545 1462 474 532
 673 0 546 534 676 83 3 674 .615686274509804 .811764705882353 .929411764705882 8
1 1 673 177 34 532 0 545 671 135 678 81 1 534 1463 474 533 677 0 545 526 679 83
 3 676 .615686274509804 .811764705882353 .929411764705882 81 1 677 365 34 533 0
 534 681 164 685 83 3 679 .615686274509804 .811764705882353 .929411764705882 81
 1 681 364 34 518 0 521 390 677 682 81 1 164 477 34 154 0 0 677 166 683 82 3 685
 10 3 2 81 1 166 478 34 162 0 0 164 161 684 82 3 683 11 0 0 81 1 161 479 34 147
 0 0 166 160 686 82 3 684 11 1 0 81 1 160 480 34 141 0 0 161 153 690 82 3 686 11
 2 0 81 1 153 481 34 151 0 0 160 176 688 82 3 690 11 3 0 81 1 176 482 34 171 0 0
 153 146 687 82 3 688 11 4 0 81 1 146 483 34 148 0 0 176 174 689 82 3 687 11 5 0
 81 1 174 484 34 157 0 0 146 137 694 82 3 689 11 6 0 81 1 137 485 34 133 0 0 174
 142 695 82 3 694 11 7 0 81 1 142 487 34 144 0 0 137 136 692 82 3 695 11 8 0 81
 1 136 488 34 112 0 0 142 334 693 82 3 692 11 10 0 81 1 334 489 34 332 0 0 136 3
37 691 82 3 693 11 11 0 81 1 337 490 34 326 0 0 334 343 698 82 3 691 11 0 1 81 1
 343 491 34 333 0 0 337 347 700 82 3 698 11 1 1 81 1 347 492 34 339 0 0 343 327
 696 82 3 700 11 2 1 81 1 327 493 34 306 0 0 347 311 699 82 3 696 11 3 1 81 1 31
1 494 34 313 0 0 327 350 697 82 3 699 11 4 1 81 1 350 495 34 341 0 0 311 321 701
 82 3 697 11 5 1 81 1 321 496 34 317 0 0 350 340 705 82 3 701 11 6 1 81 1 340 49
7 34 329 0 0 321 318 703 82 3 705 11 7 1 81 1 318 498 34 312 0 0 340 351 702 82
 3 703 11 8 1 81 1 351 499 34 316 0 0 318 322 704 82 3 702 11 9 1 81 1 322 500 3
4 325 0 0 351 370 706 82 3 704 11 10 1 81 1 370 502 34 361 0 0 322 354 710 82 3
 706 11 11 1 81 1 354 503 34 352 0 0 370 609 708 82 3 710 11 13 1 81 1 609 505 3
4 582 0 590 354 600 707 82 3 708 11 14 1 81 1 590 1468 474 582 609 0 585 593 709
 82 3 707 11 0 2 83 3 709 .615686274509804 .811764705882353 .929411764705882 81
 1 521 1466 474 518 681 0 529 585 711 81 1 390 357 34 384 0 0 383 681 715 82 3 6
82 10 2 2 81 1 383 356 34 369 0 0 391 390 712 82 3 715 10 7 1 81 1 391 354 34 38
6 0 0 371 383 713 82 3 712 10 6 1 81 1 371 352 34 331 0 0 381 391 714 82 3 713 1
0 4 1 81 1 381 351 34 358 0 0 93 371 717 82 3 714 10 2 1 81 1 93 348 34 88 0 0 1
28 381 720 82 3 717 10 1 1 81 1 128 346 34 130 0 0 135 93 719 82 3 720 10 6 0 81
 1 135 342 34 129 0 0 673 128 716 82 3 719 10 4 0 82 3 716 10 0 0 83 3 711 .6156
86274509804 .811764705882353 .929411764705882 82 3 678 6 5 2 82 3 680 6 3 2 82 3
 672 6 4 2 81 1 406 171 34 402 0 0 416 667 718 82 3 670 6 0 2 81 1 416 170 34 39
8 0 0 399 406 721 82 3 718 6 11 1 81 1 399 169 34 400 0 0 412 416 722 82 3 721 6
 10 1 81 1 412 168 34 415 0 0 403 399 724 82 3 722 6 9 1 81 1 403 167 34 405 0 0
 420 412 723 82 3 724 6 8 1 81 1 420 166 34 414 0 0 395 403 725 82 3 723 6 7 1 8
1 1 395 165 34 394 0 0 409 420 726 82 3 725 6 6 1 81 1 409 164 34 392 0 0 426 39
5 730 82 3 726 6 5 1 81 1 426 163 34 424 0 0 427 409 728 82 3 730 6 4 1 81 1 427
 162 34 430 0 0 421 426 727 82 3 728 6 3 1 81 1 421 161 34 407 0 0 433 427 729 8
2 3 727 6 2 1 81 1 433 160 34 431 0 0 117 421 735 82 3 729 6 1 1 81 1 117 159 34
 113 0 0 101 433 731 82 3 735 6 0 1 81 1 101 158 34 97 0 0 121 117 733 82 3 731
 6 7 0 81 1 121 157 34 118 0 0 104 101 732 82 3 733 6 6 0 81 1 104 156 34 103 0
 0 114 121 734 82 3 732 6 5 0 81 1 114 155 34 91 0 0 96 104 736 82 3 734 6 4 0 8
1 1 96 154 34 94 0 0 122 114 740 82 3 736 6 3 0 81 1 122 153 34 98 0 0 108 96 73
7 82 3 740 6 2 0 81 1 108 152 34 110 0 0 0 122 738 82 3 737 6 1 0 82 3 738 6 0 0
 83 3 634 .615686274509804 .811764705882353 .929411764705882 83 3 635 .615686274
509804 .811764705882353 .929411764705882 82 3 615 11 3 2 83 3 611 .6156862745098
04 .811764705882353 .929411764705882 82 3 608 11 2 2 50 493 771 0 488 496 564 0
 +.154973217844963 .1 -.01328063752886114 -1 0 0 0 0 1 83 3 586 .615686274509804
 .811764705882353 .929411764705882 15 562 747 0 739 495 0 17 739 0 562 182 304 6
7 68 276 0 0 -17 182 0 562 284 739 185 308 309 0 741 -17 304 0 562 739 284 65 17
9 293 0 745 +17 68 0 743 305 71 65 739 276 0 304 +15 743 939 0 305 503 0 17 305
 0 743 742 68 184 745 285 0 275 +17 71 0 743 68 742 67 298 296 0 308 -17 742 0 7
43 71 305 62 275 227 0 0 -17 298 0 492 51 308 62 71 296 0 742 +17 308 0 492 298
 741 67 182 309 0 739 +15 492 751 0 51 488 0 17 741 0 492 308 27 185 288 283 0 7
44 -17 27 0 492 741 51 56 749 11 0 288 +17 288 0 482 450 744 56 741 283 0 750 +1
7 744 0 482 288 747 185 284 278 0 0 -15 482 763 0 288 480 0 17 747 0 482 744 450
 170 291 287 0 0 -17 284 0 562 304 182 170 744 278 0 747 +17 450 0 482 747 288 5
2 750 447 0 291 +17 291 0 499 55 179 52 747 287 0 0 +17 55 0 499 187 291 43 59 4
51 0 47 +17 179 0 499 291 745 170 304 293 0 284 -17 745 0 499 179 187 65 305 285
 0 0 -17 187 0 499 745 55 184 47 272 0 305 +17 47 0 50 45 275 43 187 272 0 49 -1
5 50 1044 0 47 467 0 17 275 0 50 47 48 184 742 227 0 0 +17 49 0 469 59 749 43 45
 30 0 0 -15 469 1168 0 749 20 0 17 59 0 469 750 49 52 55 451 0 450 -17 749 0 469
 49 750 28 27 11 0 0 -17 750 0 469 749 59 56 450 447 0 0 -17 48 0 50 275 45 62 5
1 277 0 298 +17 51 0 492 27 298 28 48 277 0 749 -83 3 563 .615686274509804 .8117
64705882353 .929411764705882 80 2 556 748 746 8044 0 0 0 0 3 5 0 0 0 FFFFTFFFTTF
FFFFFF3 2 81 2 19 1180 556 7 0 0 551 0 753 755 84 6 557 BAAAAB83 3 559 0 .035355
33905932735 .025 84 6 753 BACAAB83 4 755 0 .0761577310586391 .07 .03 79 17 746 S
DL/TYSA_BLEND_ID15 554 127 0 751 538 0 17 751 0 554 124 100 110 411 392 0 0 -17
 124 0 554 396 751 98 109 431 0 754 -17 100 0 554 751 396 94 111 407 0 411 +17 4
11 0 515 423 752 94 751 392 0 756 +15 515 75 0 411 503 743 17 423 0 515 760 411
 97 756 398 0 0 +17 752 0 515 411 760 110 106 415 0 751 -17 756 0 542 111 105 94
 423 398 0 0 -15 542 121 0 756 532 0 17 111 0 542 410 756 91 100 407 0 396 -17 1
05 0 542 756 410 97 758 424 0 417 +17 410 0 542 105 111 113 757 402 0 0 +17 758
 0 547 759 417 113 105 424 0 410 -17 417 0 547 758 429 97 760 414 0 423 +15 547
 123 0 417 543 0 17 429 0 547 417 759 103 761 430 0 760 +17 760 0 515 752 423 10
3 417 414 0 0 -17 759 0 547 429 758 118 119 405 0 0 -17 761 0 552 754 106 118 42
9 430 0 759 -15 552 125 0 106 550 0 17 754 0 552 109 761 98 125 400 0 765 -17 10
6 0 552 761 109 103 752 415 0 429 +17 109 0 552 106 754 110 124 431 0 752 +17 12
5 0 537 119 765 118 754 400 0 761 +17 765 0 537 125 757 98 396 394 0 0 -15 537 6
 0 765 509 584 17 757 0 537 765 119 91 410 402 0 0 -17 396 0 554 100 124 91 765
 394 0 757 +17 119 0 537 757 125 113 759 405 0 758 +15 512 1288 0 224 17 0 17 22
4 0 512 222 36 197 223 259 0 0 -17 222 0 512 249 224 189 214 225 0 0 +17 36 0 51
2 224 249 194 26 39 0 0 -17 223 0 221 207 203 194 224 259 0 36 +17 249 0 512 36
 222 12 763 243 0 0 +17 763 0 762 204 37 189 249 243 0 222 -15 762 1388 0 763 76
4 0 17 204 0 762 241 763 188 193 258 0 237 -17 37 0 762 763 241 12 38 266 0 249
 +17 241 0 762 37 204 202 237 245 0 0 +17 38 0 31 234 26 202 37 266 0 232 -15 31
 1384 0 26 766 0 17 234 0 31 40 38 210 232 236 0 0 -17 232 0 233 237 230 202 234
 236 0 241 +17 40 0 31 26 234 194 207 229 0 223 +14 766 1381 770 ?764 235 31 6 7
67 -0 0 764 235 24 81 1 770 1481 474 766 768 0 769 772 775 14 764 1385 772 ?239
 766 762 6 774 +0 0 239 766 24 14 235 1377 769 ?766 217 221 6 771 -0 0 766 217 2
4 50 767 1401 0 766 774 771 0 +-.00817669586891523 .0185 -.0925559738208163 0 0
 -1 -1 0 0 50 774 1402 0 764 773 767 0 +.1268233041310848 .0185 -.00755597382081
624 -1 0 0 0 0 1 50 771 1400 0 235 767 776 0 +-.1431766958689152 .0185 -.0075559
7382081624 -1 0 0 0 0 1 50 776 1399 0 217 771 476 0 +-.00817669586891523 .0185 .
0774440261791838 0 0 -1 -1 0 0 14 217 1373 472 ?235 20 213 6 776 +0 0 235 20 24
 50 476 1056 0 467 776 484 0 +.00497321784496307 .1 -.1482806375288612 0 0 1 1 0
 0 50 484 775 0 480 476 496 0 +.00685521587729454 .1 .001177026923169676 0 1 0 -
1 0 0 81 1 472 1479 474 217 777 0 466 769 779 81 1 777 1447 34 217 0 472 251 778
 780 81 1 769 1480 474 235 781 0 472 770 785 83 3 779 .615686274509804 .81176470
5882353 .929411764705882 81 1 781 1450 34 235 0 769 768 783 782 83 3 785 .615686
274509804 .811764705882353 .929411764705882 81 1 768 1449 34 766 0 770 778 781 7
84 81 1 783 1451 34 764 0 772 781 510 790 82 3 782 23 3 2 81 1 772 1482 474 764
 783 0 770 786 788 81 1 510 1452 34 17 0 504 783 0 787 82 3 790 23 4 2 82 3 787
 23 5 2 81 1 786 1483 474 239 778 0 772 0 789 83 3 788 .615686274509804 .8117647
05882353 .929411764705882 14 239 1389 786 ?0 764 233 6 773 +0 0 0 764 24 81 1 77
8 1448 34 239 0 786 777 768 791 83 3 789 .615686274509804 .811764705882353 .9294
11764705882 82 3 791 23 1 2 50 773 1404 0 239 0 774 0 +.00685521587729454 .0185
 .001177026923169676 0 -1 0 1 0 0 82 3 784 23 2 2 81 1 251 1446 34 245 0 0 240 7
77 795 82 3 780 23 0 2 81 1 240 1445 34 231 0 0 250 251 792 82 3 795 23 11 1 81
 1 250 1444 34 236 0 0 242 240 793 82 3 792 23 10 1 82 3 793 23 9 1 83 3 775 .61
5686274509804 .811764705882353 .929411764705882 17 193 0 213 214 212 189 204 258
 0 763 +83 3 507 .615686274509804 .811764705882353 .929411764705882 83 3 497 .61
5686274509804 .811764705882353 .929411764705882 83 3 490 .615686274509804 .81176
4705882353 .929411764705882 83 3 477 .615686274509804 .811764705882353 .92941176
4705882 83 3 473 .615686274509804 .811764705882353 .929411764705882 81 1 61 1193
 34 56 0 0 44 60 794 82 3 456 19 3 0 81 1 44 1192 34 43 0 0 41 61 796 82 3 794 1
9 2 0 82 3 796 19 1 0 79 9 460 BTI/DetId81 1 268 1441 34 229 0 0 264 246 800 81
 1 264 1440 34 258 0 0 226 268 798 81 1 246 1442 34 266 0 0 268 242 797 82 3 800
 23 6 1 82 3 797 23 7 1 81 1 226 1439 34 216 0 0 247 264 799 82 3 798 23 5 1 81
 1 247 1438 34 243 0 0 261 226 804 82 3 799 23 4 1 81 1 261 1437 34 259 0 0 265
 247 805 82 3 804 23 3 1 81 1 265 1436 34 39 0 0 256 261 802 82 3 805 23 2 1 81
 1 256 1435 34 225 0 0 32 265 803 82 3 802 23 1 1 81 1 32 1434 34 202 0 0 29 256
 801 82 3 803 23 0 1 82 3 801 23 7 0 82 3 248 23 8 1 81 1 195 1429 34 189 0 0 20
9 201 808 82 3 215 23 1 0 81 1 201 1430 34 188 0 0 195 200 810 82 3 808 23 2 0 8
1 1 200 1431 34 194 0 0 201 35 806 82 3 810 23 3 0 81 1 35 1432 34 210 0 0 200 2
9 809 82 3 806 23 4 0 82 3 809 23 5 0 82 3 46 19 0 0 82 3 33 23 6 0 19 18 138 0
 1 0 10 6 0 S0 74 4 CI16 index_map_offset0 0 1 dCCZ20 16 6 0 0 510 19 651 14 2 7
86 0 0 0 0 0 0 0 0 0 0 0 0 0 0 80 1 13 474 807 8040 0 0 0 0 3 5 0 0 0 TTTFFFFFFF
FFFFFFF2 83 3 15 .615686274509804 .811764705882353 .929411764705882 79 17 807 SD
L/TYSA_COLOUR_21 0 
